# xmcd
#
# Track frame offsets:
#	150
#	9251
#	20507
#	32703
#	47109
#	65555
#	79039
#	90930
#	101436
#	124471
#	139927
#	147690
#	162880
#	177412
#	187810
#	199791
#	215675
#	228161
#	240573
#	255769
#
# Disc length: 3514 seconds
#
# Revision: 0
# Processed by: cddbd v1.5.1PL0 Copyright (c) Steve Scherf et al.
# Submitted via: audiograbber 1.83.01
#
DISCID=0b0db814
DTITLE=Various Artist - Volani Taboroveho Ohne - CD3 - Kamaradsky kruh
DYEAR=2001
DGENRE=Country
TTITLE0=Spojene osady Brno - Vandrak
TTITLE1=T.E.Band - Nadrazackej drink
TTITLE2=Spojene osady Praha - Trampe kamarade
TTITLE3=Rohaci - Toulavej
TTITLE4=Wabi a Miki Ryvolove - Tereza
TTITLE5=Vojta Kidak Tomasko - Ztraceni pratele
TTITLE6=Karabina and Rowers - Padour
TTITLE7=Miki Ryvola - Osado, osado
TTITLE8=Vaclav Marsalek and Pacifik - Zeny, zeny
TTITLE9=Spojene osady Brno - Trampska pisen
TTITLE10=Hop Trop - Luftaci
TTITLE11=Duo Cervanek - Zpiva si i totem
TTITLE12=Paberky - Zivot mi uz nema co vzit
TTITLE13=T.E.Band - Ztracena Hawai
TTITLE14=Spojene osady Brno - Stary serif
TTITLE15=Ozvena - Po rece dolu
TTITLE16=Jaroslav Samson Lenk - Blond holky
TTITLE17=Kamelot - Krajina veternych mlynu
TTITLE18=Pacifik - Hospoda Na zavrati
TTITLE19=Hop Trop - Potvory
EXTD=
EXTT0=
EXTT1=
EXTT2=
EXTT3=
EXTT4=
EXTT5=
EXTT6=
EXTT7=
EXTT8=
EXTT9=
EXTT10=
EXTT11=
EXTT12=
EXTT13=
EXTT14=
EXTT15=
EXTT16=
EXTT17=
EXTT18=
EXTT19=
PLAYORDER=
